<?xml version="1.0" standalone="no"?>
<!DOCTYPE svg PUBLIC "-//W3C//DTD SVG 20010904//EN"
 "http://www.w3.org/TR/2001/REC-SVG-20010904/DTD/svg10.dtd">
<svg version="1.0" xmlns="http://www.w3.org/2000/svg"
 width="100.000000pt" height="100.000000pt" viewBox="0 0 100.000000 100.000000"
 preserveAspectRatio="xMidYMid meet">
<metadata>
Created by potrace 1.11, written by Peter Selinger 2001-2013
</metadata>
<g transform="translate(0.000000,100.000000) scale(0.100000,-0.100000)"
fill="#000000" stroke="none">
<path d="M705 804 c-11 -3 -52 -14 -91 -26 l-71 -20 -97 22 c-154 36 -237 19
-323 -66 -83 -83 -112 -189 -65 -236 l23 -23 -7 42 c-16 102 25 185 111 224
46 21 142 24 220 6 l49 -12 -52 -39 c-54 -39 -115 -112 -147 -174 -49 -98 -50
-229 -3 -293 44 -59 164 -94 261 -77 127 23 287 172 287 268 0 59 -12 55 -32
-9 -39 -127 -147 -204 -289 -204 -93 0 -153 28 -182 83 -42 81 9 262 102 363
67 72 76 74 235 32 l137 -36 63 21 c35 11 74 32 87 46 22 23 23 27 8 52 -8 15
-27 33 -42 40 -29 14 -148 24 -182 16z m176 -50 c37 -19 35 -45 -4 -58 -30
-11 -128 2 -231 31 -53 15 -57 17 -35 26 79 29 214 30 270 1z"/>
</g>
</svg>
