<?xml version="1.0" standalone="no"?>
<!DOCTYPE svg PUBLIC "-//W3C//DTD SVG 20010904//EN"
 "http://www.w3.org/TR/2001/REC-SVG-20010904/DTD/svg10.dtd">
<svg version="1.0" xmlns="http://www.w3.org/2000/svg"
 width="100.000000pt" height="100.000000pt" viewBox="0 0 100.000000 100.000000"
 preserveAspectRatio="xMidYMid meet">
<metadata>
Created by potrace 1.11, written by Peter Selinger 2001-2013
</metadata>
<g transform="translate(0.000000,100.000000) scale(0.100000,-0.100000)"
fill="#000000" stroke="none">
<path d="M680 796 c-30 -7 -76 -19 -101 -26 -40 -12 -54 -11 -106 3 -84 24
-171 31 -219 18 -130 -35 -248 -195 -209 -287 22 -53 35 -51 28 5 -3 27 -2 66
1 86 9 47 75 120 124 136 45 15 142 13 206 -4 l49 -13 -52 -39 c-114 -87 -181
-213 -181 -342 0 -72 8 -93 53 -141 38 -39 107 -62 191 -62 84 0 169 41 247
119 63 63 89 110 89 160 0 44 -17 47 -25 4 -10 -54 -41 -109 -86 -153 -101
-97 -312 -102 -382 -8 -66 88 -1 305 124 412 51 44 49 44 222 -2 l118 -32 62
21 c105 34 131 90 61 131 -40 23 -147 30 -214 14z m205 -40 c47 -31 24 -66
-43 -66 -44 0 -214 35 -242 50 -10 6 -3 11 25 18 22 6 49 13 60 16 40 10 175
-2 200 -18z"/>
</g>
</svg>
