<?xml version="1.0" standalone="no"?>
<!DOCTYPE svg PUBLIC "-//W3C//DTD SVG 20010904//EN"
 "http://www.w3.org/TR/2001/REC-SVG-20010904/DTD/svg10.dtd">
<svg version="1.0" xmlns="http://www.w3.org/2000/svg"
 width="256.000000pt" height="256.000000pt" viewBox="0 0 256.000000 256.000000"
 preserveAspectRatio="xMidYMid meet">
<metadata>
Created by potrace 1.11, written by Peter Selinger 2001-2013
</metadata>
<g transform="translate(0.000000,256.000000) scale(0.100000,-0.100000)"
fill="#000000" stroke="none">
<path d="M895 2145 c-132 -30 -224 -107 -284 -237 -34 -74 -71 -200 -86 -296
-3 -18 -12 -64 -20 -102 -8 -38 -17 -84 -20 -102 -11 -62 -56 -183 -82 -221
-32 -46 -49 -55 -176 -97 -70 -24 -109 -43 -140 -70 -39 -35 -42 -41 -42 -87
1 -60 26 -98 98 -152 64 -47 194 -99 287 -116 19 -3 110 -17 130 -20 32 -5
117 -15 159 -20 54 -6 56 -8 42 -33 -25 -47 -4 -115 46 -147 55 -36 119 -43
389 -40 143 2 282 6 309 9 28 3 75 8 105 12 257 27 427 84 477 161 12 18 18
46 18 83 0 53 2 57 44 95 24 22 48 51 53 65 15 34 17 89 6 122 -13 37 -75 91
-146 127 -70 35 -122 90 -122 129 1 15 7 43 14 63 17 48 104 176 135 200 14
10 31 22 36 26 6 5 29 21 53 37 24 16 51 45 61 65 16 30 24 35 57 37 70 4 182
23 207 36 26 13 21 25 -17 38 -30 10 -36 17 -46 62 -26 105 -164 188 -318 191
-7 0 -20 13 -28 29 -26 50 -94 46 -114 -7 -5 -14 -17 -23 -27 -23 -56 3 -173
-32 -223 -67 -47 -32 -86 -90 -95 -139 -6 -28 -13 -38 -34 -42 -37 -9 -41 -13
-35 -29 9 -22 79 -37 229 -49 25 -2 21 -20 -11 -64 -43 -55 -76 -70 -146 -63
-26 2 -53 56 -103 205 -25 77 -60 166 -77 199 -60 111 -162 195 -278 227 -60
17 -222 20 -285 5z"/>
</g>
</svg>
